<svg width="25" height="26" viewBox="0 0 25 26" fill="none" xmlns="http://www.w3.org/2000/svg">
<path d="M24.4951 12.7939C24.4951 11.7648 24.4117 11.0139 24.2313 10.2351H12.4975V14.8798H19.3849C19.2461 16.0341 18.4963 17.7725 16.8299 18.9405L16.8066 19.096L20.5166 21.9744L20.7736 22.0001C23.1342 19.8167 24.4951 16.6043 24.4951 12.7939Z" fill="#4285F4"/>
<path d="M12.4975 25.0317C15.8717 25.0317 18.7045 23.9192 20.7736 22.0001L16.8299 18.9406C15.7746 19.6777 14.3582 20.1922 12.4975 20.1922C9.19259 20.1922 6.38762 18.0089 5.38773 14.9912L5.24116 15.0037L1.38346 17.9936L1.33301 18.134C3.38813 22.2225 7.60951 25.0317 12.4975 25.0317Z" fill="#34A853"/>
<path d="M5.38775 14.9912C5.12392 14.2125 4.97123 13.378 4.97123 12.5159C4.97123 11.6536 5.12392 10.8192 5.37387 10.0405L5.36688 9.87462L1.46083 6.83667L1.33303 6.89755C0.486019 8.59417 0 10.4994 0 12.5159C0 14.5323 0.486019 16.4374 1.33303 18.1341L5.38775 14.9912Z" fill="#FBBC05"/>
<path d="M12.4979 4.83945C14.8446 4.83945 16.4276 5.85463 17.3302 6.70299L20.8573 3.25414C18.6911 1.23769 15.8722 0 12.4979 0C7.60994 0 3.38856 2.8091 1.33344 6.8976L5.37427 10.0405C6.38805 7.02281 9.19302 4.83945 12.4979 4.83945Z" fill="#EB4335"/>
</svg>
